<svg xmlns="http://www.w3.org/2000/svg" xmlns:xlink="http://www.w3.org/1999/xlink" width="118" height="152" viewBox="0 0 118 152">
    <defs>
        <linearGradient id="a" x1="50%" x2="50%" y1="100%" y2="-77.088%">
            <stop offset="0%" stop-color="#F70"/>
            <stop offset="100%" stop-color="#F65800"/>
        </linearGradient>
        <radialGradient id="c" cx="45.274%" cy="100%" r="210.798%" fx="45.274%" fy="100%" gradientTransform="matrix(-.01566 -.99987 1.70544 -.02755 -1.246 1.48)">
            <stop offset="0%" stop-color="#ED4100" stop-opacity=".5"/>
            <stop offset="100%" stop-color="#864700" stop-opacity="0"/>
        </radialGradient>
        <path id="b" d="M16.562 61.567l54.693-8.51c9.21-.34 15.37 6.865 15.37 16.828v47.13c0 9.962-6.365 17.757-14.217 17.41l-54.575-2.411c-7.852-.346-14.217-7.971-14.217-17.03V78.317c0-9.059 4.383-15.073 12.946-16.75z"/>
        <linearGradient id="e" x1="110.779%" x2="64.808%" y1="35.729%" y2="54.938%">
            <stop offset="0%" stop-color="#6FFF47"/>
            <stop offset="100%" stop-color="#35B213"/>
        </linearGradient>
        <path id="d" d="M61.573 2.643C57.864.645 53.95-.34 49.605-.34c-6.129 0-12.221 1.971-18.133 3.876-5.66 1.836-11.535 3.74-17.17 3.74-3.816 0-7.248-.85-10.487-2.606-1.18-.621-2.36.31-2.444 1.715v30.725c0 .729.373 1.404.963 1.715 3.709 2.012 7.622 2.984 11.968 2.984 6.129 0 12.221-1.972 18.121-3.876 5.671-1.85 11.547-3.74 17.182-3.74 3.816 0 7.248.85 10.487 2.606 1.288.675 2.444-.446 2.444-1.715V4.358c0-.729-.373-1.39-.963-1.715z"/>
        <linearGradient id="g" x1="61.759%" x2="70.315%" y1="-39.83%" y2="54.545%">
            <stop offset="0%" stop-color="#6FFF47"/>
            <stop offset="100%" stop-color="#35B213"/>
        </linearGradient>
        <path id="f" d="M58.172 2.625C54.552.695 50.732-.257 46.49-.257c-5.982 0-11.93 1.904-17.7 3.742-5.525 1.773-11.26 3.612-16.761 3.612-3.726 0-7.076-.822-10.238-2.517-1.152-.6-2.304.3-2.386 1.656v29.665c0 .705.365 1.357.94 1.656 3.62 1.943 7.44 2.882 11.684 2.882 5.982 0 11.93-1.904 17.689-3.742 5.536-1.786 11.272-3.612 16.772-3.612 3.726 0 7.076.822 10.238 2.517 1.257.652 2.386-.43 2.386-1.656V4.28c0-.705-.365-1.343-.94-1.656z"/>
        <radialGradient id="i" cy="20.419%" r="129.541%" fx="50%" fy="20.419%" gradientTransform="matrix(-.62712 -.77795 .77892 -.62634 .655 .721)">
            <stop offset="0%" stop-color="#FFE139" stop-opacity=".4"/>
            <stop offset="100%" stop-color="#FFF" stop-opacity="0"/>
        </radialGradient>
        <ellipse id="h" cx="67.933" cy="60.531" rx="12.379" ry="12.354"/>
        <radialGradient id="k" cy="20.419%" r="131.961%" fx="50%" fy="20.419%" gradientTransform="scale(-.95357 -1) rotate(49.79 .428 -1.104)">
            <stop offset="0%" stop-color="#FFE139" stop-opacity=".4"/>
            <stop offset="100%" stop-color="#FFF" stop-opacity="0"/>
        </radialGradient>
        <ellipse id="j" cx="22.083" cy="51.85" rx="14.563" ry="13.807"/>
        <linearGradient id="m" x1="50%" x2="50%" y1="-16.053%" y2="96.982%">
            <stop offset="0%" stop-color="#F70"/>
            <stop offset="100%" stop-color="#F65800"/>
        </linearGradient>
        <path id="l" d="M29.294 10.984L90.603 9.1c9.892-.346 14.251 3.515 14.251 13.473l-.969 53.01c0 9.958-5.457 13.398-15.35 13.052L14.25 86.013C4.36 85.666 0 81.975 0 72.92L.132 28.4c0-.52.027-1.034.079-1.543C-.454 11.252 2.952 2.301 10.43 0 6.24 2.347 4.995 4.733 6.7 7.16c2.862 4.076 13.635 4.003 22.594 3.824z"/>
        <filter id="n" width="118.1%" height="121.4%" x="-9.1%" y="-10.7%" filterUnits="objectBoundingBox">
            <feGaussianBlur in="SourceAlpha" result="shadowBlurInner1" stdDeviation="7"/>
            <feOffset dx="-5" in="shadowBlurInner1" result="shadowOffsetInner1"/>
            <feComposite in="shadowOffsetInner1" in2="SourceAlpha" k2="-1" k3="1" operator="arithmetic" result="shadowInnerInner1"/>
            <feColorMatrix in="shadowInnerInner1" values="0 0 0 0 0.923123937 0 0 0 0 0.346014696 0 0 0 0 0 0 0 0 0.3 0"/>
        </filter>
        <linearGradient id="o" x1="47.973%" x2="47.973%" y1="-34.156%" y2="137.799%">
            <stop offset="0%" stop-color="#FF9700"/>
            <stop offset="100%" stop-color="#F74E00"/>
        </linearGradient>
        <path id="p" d="M108.267 104.434c-3.34.414-7.397.824-12.172 1.23-6.424.547-11.355 5.831-11.355 12.167 0 .302.013.604.04.905.509 5.695 5.619 9.905 11.415 9.405l8.546-.737c6.808-.587 12.033-6.187 12.037-12.902.004-3.936-.108-7.732-.333-11.389l-.008.002v-.014c0-1.93-1.51-5.425-3.842-6.895 1.327 1.048 3.842 6.248-4.366 8.203l.037.025z"/>
        <ellipse id="r" cx="7.282" cy="7.267" rx="7.282" ry="7.267"/>
        <filter id="q" width="244.2%" height="244.5%" x="-72.1%" y="-51.6%" filterUnits="objectBoundingBox">
            <feOffset dy="3" in="SourceAlpha" result="shadowOffsetOuter1"/>
            <feGaussianBlur in="shadowOffsetOuter1" result="shadowBlurOuter1" stdDeviation="3"/>
            <feColorMatrix in="shadowBlurOuter1" values="0 0 0 0 0.976470588 0 0 0 0 0.403921569 0 0 0 0 0 0 0 0 0.534731658 0"/>
        </filter>
        <ellipse id="s" cx="52.665" cy="14.062" rx="14.563" ry="13.807"/>
    </defs>
    <g fill="none" fill-rule="evenodd">
        <g fill-rule="evenodd" transform="rotate(-1 60.985 92.623)">
            <use fill="url(#a)" xlink:href="#b"/>
            <use fill="url(#c)" xlink:href="#b"/>
        </g>
        <g transform="rotate(-76 68.626 17.531)">
            <g fill-rule="evenodd">
                <use fill="#5ED43E" xlink:href="#d"/>
                <use fill="url(#e)" xlink:href="#d"/>
            </g>
            <ellipse cx="31.029" cy="21.739" fill="#35B213" rx="8.01" ry="7.994"/>
            <path fill="#35B213" d="M7.143 14.005l2.895.355 2.895.356a2.18 2.18 0 1 1-.531 4.328c-.965-.12-1.93-.238-2.895-.356l-2.896-.356a2.18 2.18 0 1 1 .531-4.328zM49.886 4.867l2.896.355 2.895.356a2.18 2.18 0 0 1-.531 4.328c-.965-.12-1.93-.238-2.896-.356l-2.895-.356a2.18 2.18 0 0 1 .531-4.328zM7.836 34.803l5.79.711a2.18 2.18 0 1 1-.531 4.328l-5.79-.711a2.18 2.18 0 1 1 .531-4.328zM49.871 28.837l5.79.71a2.18 2.18 0 1 1-.531 4.328l-5.79-.71a2.18 2.18 0 0 1 .531-4.328z"/>
        </g>
        <path fill="#D44A08" fill-rule="nonzero" d="M19.019 71.546l50.148-8.537c8.234-.45 12.468 3.902 12.624 12.87l.74 42.425c.157 8.967-5.414 16.082-12.444 15.892l-48.825.745c-7.03-.19-12.844-6.954-12.986-15.108L7.7 86.827c-.143-8.153 3.685-13.637 11.319-15.28z"/>
        <g transform="rotate(-101 61.446 52.347)">
            <g fill-rule="evenodd">
                <use fill="#5ED43E" xlink:href="#f"/>
                <use fill="url(#g)" xlink:href="#f"/>
            </g>
            <ellipse cx="30.962" cy="21.597" fill="#35B213" rx="8.01" ry="7.994"/>
            <path fill="#35B213" d="M7.81 12.52l2.896.356 2.895.355a2.18 2.18 0 0 1-.531 4.328l-2.895-.356-2.896-.355a2.18 2.18 0 0 1 .531-4.328zM49.187 5.74c.966.12 1.93.238 2.896.356l2.895.356a2.18 2.18 0 1 1-.531 4.328c-.965-.12-1.93-.238-2.896-.356l-2.895-.356a2.18 2.18 0 0 1 .531-4.328zM6.502 34.475l5.79.711a2.18 2.18 0 0 1-.531 4.328l-5.79-.711a2.18 2.18 0 0 1 .531-4.328zM49.586 26.547l5.79.71a2.18 2.18 0 0 1-.531 4.328l-5.79-.71a2.18 2.18 0 1 1 .531-4.328z"/>
        </g>
        <g transform="rotate(-41 122.083 -9.923)">
            <path fill="#5ED43E" fill-rule="nonzero" d="M60.828 2.265C57.12.266 53.207-.72 48.86-.72c-6.128 0-12.22 1.972-18.132 3.876-5.66 1.837-11.535 3.74-17.17 3.74-3.817 0-7.248-.85-10.487-2.606-1.18-.62-2.36.311-2.444 1.715V36.73c0 .73.373 1.405.963 1.715 3.708 2.012 7.622 2.985 11.968 2.985 6.129 0 12.221-1.972 18.12-3.876 5.672-1.85 11.547-3.74 17.182-3.74 3.817 0 7.249.85 10.487 2.605 1.289.676 2.445-.445 2.445-1.715V3.98c0-.73-.374-1.391-.964-1.715z"/>
            <ellipse cx="30.654" cy="21.873" fill="#35B213" rx="8.01" ry="7.994"/>
            <path fill="#35B213" d="M6.372 13.156l2.895.355 2.896.356a2.18 2.18 0 1 1-.531 4.328c-.966-.12-1.931-.238-2.896-.356l-2.895-.356a2.18 2.18 0 1 1 .531-4.328zM50.185 4.947l2.895.355 2.895.356a2.18 2.18 0 0 1-.531 4.328c-.965-.12-1.93-.238-2.895-.356l-2.896-.356a2.18 2.18 0 0 1 .531-4.328zM6.853 34.757l5.79.71a2.18 2.18 0 0 1-.531 4.328l-5.79-.71a2.18 2.18 0 0 1 .531-4.328zM49.71 27.645l5.791.711a2.18 2.18 0 1 1-.531 4.328l-5.79-.711a2.18 2.18 0 0 1 .531-4.328z"/>
        </g>
        <g fill-rule="evenodd" transform="rotate(-1 84.078 59.571)">
            <use fill="#FFC200" xlink:href="#h"/>
            <use fill="url(#i)" xlink:href="#h"/>
        </g>
        <g fill-rule="evenodd" transform="rotate(-1 38.104 50.808)">
            <use fill="#FFC200" xlink:href="#j"/>
            <use fill="url(#k)" xlink:href="#j"/>
        </g>
        <g transform="rotate(59 .762 67.753)">
            <path fill="#5ED43E" fill-rule="nonzero" d="M59.987 3.34C56.28 1.342 52.366.356 48.02.356c-6.128 0-12.22 1.972-18.132 3.876-5.66 1.836-11.535 3.74-17.17 3.74-3.817 0-7.248-.85-10.487-2.606-1.18-.621-2.36.31-2.444 1.715v30.725c0 .729.373 1.404.963 1.715 3.708 2.012 7.621 2.984 11.968 2.984 6.129 0 12.22-1.971 18.12-3.876 5.672-1.85 11.547-3.74 17.182-3.74 3.817 0 7.249.85 10.487 2.606 1.289.675 2.445-.446 2.445-1.715V5.055c0-.729-.374-1.39-.964-1.715z"/>
            <ellipse cx="28.695" cy="21.61" fill="#35B213" rx="8.01" ry="7.994"/>
            <path fill="#35B213" d="M6.882 12.181l2.895.356 2.895.355a2.18 2.18 0 0 1-.531 4.328l-2.895-.356-2.896-.355a2.18 2.18 0 0 1 .531-4.328zM49.093 6.973a27947034780005276 27947034780005276 0 0 1 5.791.711 2.18 2.18 0 1 1-.531 4.328l-2.896-.356-2.895-.355a2.18 2.18 0 1 1 .531-4.328zM7.117 34.365l5.79.711a2.18 2.18 0 1 1-.531 4.328l-5.79-.711a2.18 2.18 0 1 1 .531-4.328zM48.83 27.163l5.792.711a2.18 2.18 0 1 1-.531 4.328L48.3 31.49a2.18 2.18 0 1 1 .531-4.328z"/>
        </g>
        <path fill="#CC4708" fill-rule="nonzero" d="M87.399 79.274l24.45 16.084c3.137 2.064 5.059 5.587 5.125 9.394l.18 10.344L88.82 96.468 87.4 79.274z"/>
        <g fill-rule="nonzero" transform="rotate(-1 3701.632 31.09)">
            <use fill="url(#m)" fill-rule="evenodd" xlink:href="#l"/>
            <use fill="#000" filter="url(#n)" xlink:href="#l"/>
        </g>
        <g fill-rule="evenodd" transform="rotate(-1 116.698 111.032)">
            <use fill="url(#o)" xlink:href="#p"/>
            <use fill="#FF8C00" xlink:href="#p"/>
        </g>
        <g fill-rule="nonzero" transform="rotate(-1 6404.581 -5118.799)">
            <use fill="#000" filter="url(#q)" xlink:href="#r"/>
            <use fill="#2D3540" fill-rule="evenodd" xlink:href="#r"/>
        </g>
        <g fill-rule="evenodd" transform="rotate(-1 68.687 13.02)">
            <use fill="#FFC200" xlink:href="#s"/>
            <use fill="url(#k)" xlink:href="#s"/>
        </g>
    </g>
</svg>
